G04 EAGLE Gerber RS-274X export*
G75*
%MOMM*%
%FSLAX34Y34*%
%LPD*%
%INTop Copper*%
%IPPOS*%
%AMOC8*
5,1,8,0,0,1.08239X$1,22.5*%
G01*
%ADD10R,0.450000X0.450000*%
%ADD11R,0.640000X0.320000*%
%ADD12R,0.320000X0.640000*%
%ADD13C,1.879600*%
%ADD14C,0.152400*%
%ADD15C,0.508000*%
%ADD16C,0.604800*%


D10*
X0Y44000D03*
X0Y36000D03*
X0Y28000D03*
X0Y20000D03*
X0Y12000D03*
X0Y4000D03*
X0Y-4000D03*
X0Y-12000D03*
X0Y-20000D03*
X0Y-28000D03*
X0Y-36000D03*
X0Y-44000D03*
X-10000Y44000D03*
X-10000Y36000D03*
X-10000Y28000D03*
X-10000Y20000D03*
X-10000Y12000D03*
X-10000Y4000D03*
X-10000Y-4000D03*
X-10000Y-12000D03*
X-10000Y-20000D03*
X-10000Y-28000D03*
X-10000Y-36000D03*
X-10000Y-44000D03*
X10000Y44000D03*
X10000Y36000D03*
X10000Y28000D03*
X10000Y20000D03*
X10000Y12000D03*
X10000Y4000D03*
X10000Y-4000D03*
X10000Y-12000D03*
X10000Y-20000D03*
X10000Y-28000D03*
X10000Y-36000D03*
X10000Y-44000D03*
D11*
X-45000Y60000D03*
X-45000Y52000D03*
X-45000Y44000D03*
X-45000Y36000D03*
X-45000Y28000D03*
X-45000Y20000D03*
X-45000Y12000D03*
X-45000Y4000D03*
X-45000Y-4000D03*
X-45000Y-12000D03*
X-45000Y-20000D03*
X-45000Y-28000D03*
X-45000Y-36000D03*
X-45000Y-44000D03*
X-45000Y-52000D03*
X-45000Y-60000D03*
X45000Y60000D03*
X45000Y52000D03*
X45000Y44000D03*
X45000Y36000D03*
X45000Y28000D03*
X45000Y20000D03*
X45000Y12000D03*
X45000Y4000D03*
X45000Y-4000D03*
X45000Y-12000D03*
X45000Y-20000D03*
X45000Y-28000D03*
X45000Y-36000D03*
X45000Y-44000D03*
X45000Y-52000D03*
X45000Y-60000D03*
X-36000Y56000D03*
X-36000Y48000D03*
X-36000Y40000D03*
X-36000Y32000D03*
X-36000Y24000D03*
X-36000Y16000D03*
X-36000Y8000D03*
X-36000Y0D03*
X-36000Y-8000D03*
X-36000Y-16000D03*
X-36000Y-24000D03*
X-36000Y-32000D03*
X-36000Y-40000D03*
X-36000Y-48000D03*
X-36000Y-56000D03*
X36000Y56000D03*
X36000Y48000D03*
X36000Y40000D03*
X36000Y32000D03*
X36000Y24000D03*
X36000Y16000D03*
X36000Y8000D03*
X36000Y0D03*
X36000Y-8000D03*
X36000Y-16000D03*
X36000Y-24000D03*
X36000Y-32000D03*
X36000Y-40000D03*
X36000Y-48000D03*
X36000Y-56000D03*
D12*
X-40000Y75000D03*
X-32000Y75000D03*
X-24000Y75000D03*
X-16000Y75000D03*
X-8000Y75000D03*
X0Y75000D03*
X8000Y75000D03*
X16000Y75000D03*
X24000Y75000D03*
X32000Y75000D03*
X40000Y75000D03*
X36000Y66000D03*
X28000Y66000D03*
X20000Y66000D03*
X12000Y66000D03*
X4000Y66000D03*
X-4000Y66000D03*
X-12000Y66000D03*
X-20000Y66000D03*
X-28000Y66000D03*
X-36000Y66000D03*
X40000Y-75000D03*
X32000Y-75000D03*
X24000Y-75000D03*
X16000Y-75000D03*
X8000Y-75000D03*
X0Y-75000D03*
X-8000Y-75000D03*
X-16000Y-75000D03*
X-24000Y-75000D03*
X-32000Y-75000D03*
X-40000Y-75000D03*
X28000Y-66000D03*
X20000Y-66000D03*
X12000Y-66000D03*
X4000Y-66000D03*
X-4000Y-66000D03*
X-12000Y-66000D03*
X-20000Y-66000D03*
X-28000Y-66000D03*
X-36000Y-66000D03*
X36000Y-66000D03*
D13*
X-279400Y-177800D03*
X-279400Y-152400D03*
X-279400Y-127000D03*
X-279400Y-101600D03*
X-279400Y-76200D03*
X-279400Y-50800D03*
X-279400Y-25400D03*
X-279400Y0D03*
X-279400Y25400D03*
X-279400Y50800D03*
X-279400Y76200D03*
X-279400Y101600D03*
X-279400Y127000D03*
X-279400Y152400D03*
X-279400Y177800D03*
X-279400Y203200D03*
X-279400Y228600D03*
X-279400Y254000D03*
X-279400Y279400D03*
X-279400Y304800D03*
X-279400Y-685800D03*
X-279400Y-660400D03*
X-279400Y-635000D03*
X-279400Y-609600D03*
X-279400Y-584200D03*
X-279400Y-558800D03*
X-279400Y-533400D03*
X-279400Y-508000D03*
X-279400Y-482600D03*
X-279400Y-457200D03*
X-279400Y-431800D03*
X-279400Y-406400D03*
X-279400Y-381000D03*
X-279400Y-355600D03*
X-279400Y-330200D03*
X-279400Y-304800D03*
X-279400Y-279400D03*
X-279400Y-254000D03*
X-279400Y-228600D03*
X-279400Y-203200D03*
X279400Y-203200D03*
X279400Y-228600D03*
X279400Y-254000D03*
X279400Y-279400D03*
X279400Y-304800D03*
X279400Y-330200D03*
X279400Y-355600D03*
X279400Y-381000D03*
X279400Y-406400D03*
X279400Y-431800D03*
X279400Y-457200D03*
X279400Y-482600D03*
X279400Y-508000D03*
X279400Y-533400D03*
X279400Y-558800D03*
X279400Y-584200D03*
X279400Y-609600D03*
X279400Y-635000D03*
X279400Y-660400D03*
X279400Y-685800D03*
X241300Y-685800D03*
X215900Y-685800D03*
X190500Y-685800D03*
X165100Y-685800D03*
X139700Y-685800D03*
X114300Y-685800D03*
X88900Y-685800D03*
X63500Y-685800D03*
X38100Y-685800D03*
X12700Y-685800D03*
X-12700Y-685800D03*
X-38100Y-685800D03*
X-63500Y-685800D03*
X-88900Y-685800D03*
X-114300Y-685800D03*
X-139700Y-685800D03*
X-165100Y-685800D03*
X-190500Y-685800D03*
X-215900Y-685800D03*
X-241300Y-685800D03*
X-279400Y812800D03*
X-279400Y787400D03*
X-279400Y762000D03*
X-279400Y736600D03*
X-279400Y711200D03*
X-279400Y685800D03*
X-279400Y660400D03*
X-279400Y635000D03*
X-279400Y609600D03*
X-279400Y584200D03*
X-279400Y558800D03*
X-279400Y533400D03*
X-279400Y508000D03*
X-279400Y482600D03*
X-279400Y457200D03*
X-279400Y431800D03*
X-279400Y406400D03*
X-279400Y381000D03*
X-279400Y355600D03*
X-279400Y330200D03*
X279400Y812800D03*
X279400Y787400D03*
X279400Y762000D03*
X279400Y736600D03*
X279400Y711200D03*
X279400Y685800D03*
X279400Y660400D03*
X279400Y635000D03*
X279400Y609600D03*
X279400Y584200D03*
X279400Y558800D03*
X279400Y533400D03*
X279400Y508000D03*
X279400Y482600D03*
X279400Y457200D03*
X279400Y431800D03*
X279400Y406400D03*
X279400Y381000D03*
X279400Y355600D03*
X279400Y330200D03*
X279400Y304800D03*
X279400Y279400D03*
X279400Y254000D03*
X279400Y228600D03*
X279400Y203200D03*
X279400Y177800D03*
X279400Y152400D03*
X279400Y127000D03*
X279400Y101600D03*
X279400Y76200D03*
X279400Y50800D03*
X279400Y25400D03*
X279400Y0D03*
X279400Y-25400D03*
X279400Y-50800D03*
X279400Y-76200D03*
X279400Y-101600D03*
X279400Y-127000D03*
X279400Y-152400D03*
X279400Y-177800D03*
X-330200Y-177800D03*
X-330200Y-152400D03*
X-330200Y-127000D03*
X-330200Y-101600D03*
X-330200Y-76200D03*
X-330200Y-50800D03*
X-330200Y-25400D03*
X-330200Y0D03*
X-330200Y25400D03*
X-330200Y50800D03*
X-330200Y76200D03*
X-330200Y101600D03*
X-330200Y127000D03*
X-330200Y152400D03*
X-330200Y177800D03*
X-330200Y203200D03*
X-330200Y228600D03*
X-330200Y254000D03*
X-330200Y279400D03*
X-330200Y304800D03*
X-330200Y-685800D03*
X-330200Y-660400D03*
X-330200Y-635000D03*
X-330200Y-609600D03*
X-330200Y-584200D03*
X-330200Y-558800D03*
X-330200Y-533400D03*
X-330200Y-508000D03*
X-330200Y-482600D03*
X-330200Y-457200D03*
X-330200Y-431800D03*
X-330200Y-406400D03*
X-330200Y-381000D03*
X-330200Y-355600D03*
X-330200Y-330200D03*
X-330200Y-304800D03*
X-330200Y-279400D03*
X-330200Y-254000D03*
X-330200Y-228600D03*
X-330200Y-203200D03*
X330200Y-203200D03*
X330200Y-228600D03*
X330200Y-254000D03*
X330200Y-279400D03*
X330200Y-304800D03*
X330200Y-330200D03*
X330200Y-355600D03*
X330200Y-381000D03*
X330200Y-406400D03*
X330200Y-431800D03*
X330200Y-457200D03*
X330200Y-482600D03*
X330200Y-508000D03*
X330200Y-533400D03*
X330200Y-558800D03*
X330200Y-584200D03*
X330200Y-609600D03*
X330200Y-635000D03*
X330200Y-660400D03*
X330200Y-685800D03*
X330200Y50800D03*
X330200Y25400D03*
X330200Y0D03*
X330200Y-25400D03*
X330200Y-50800D03*
X330200Y-76200D03*
X330200Y-101600D03*
X330200Y-127000D03*
X330200Y-152400D03*
X330200Y-177800D03*
X241300Y-736600D03*
X215900Y-736600D03*
X190500Y-736600D03*
X165100Y-736600D03*
X139700Y-736600D03*
X114300Y-736600D03*
X88900Y-736600D03*
X63500Y-736600D03*
X38100Y-736600D03*
X12700Y-736600D03*
X-12700Y-736600D03*
X-38100Y-736600D03*
X-63500Y-736600D03*
X-88900Y-736600D03*
X-114300Y-736600D03*
X-139700Y-736600D03*
X-165100Y-736600D03*
X-190500Y-736600D03*
X-215900Y-736600D03*
X-241300Y-736600D03*
X-330200Y812800D03*
X-330200Y787400D03*
X-330200Y762000D03*
X-330200Y736600D03*
X-330200Y711200D03*
X-330200Y685800D03*
X-330200Y660400D03*
X-330200Y635000D03*
X-330200Y609600D03*
X-330200Y584200D03*
X-330200Y558800D03*
X-330200Y533400D03*
X-330200Y508000D03*
X-330200Y482600D03*
X-330200Y457200D03*
X-330200Y431800D03*
X-330200Y406400D03*
X-330200Y381000D03*
X-330200Y355600D03*
X-330200Y330200D03*
X330200Y812800D03*
X330200Y787400D03*
X330200Y762000D03*
X330200Y736600D03*
X330200Y711200D03*
X330200Y685800D03*
X330200Y660400D03*
X330200Y635000D03*
X330200Y609600D03*
X330200Y584200D03*
X330200Y558800D03*
X330200Y533400D03*
X330200Y508000D03*
X330200Y482600D03*
X330200Y457200D03*
X330200Y431800D03*
X330200Y406400D03*
X330200Y381000D03*
X330200Y355600D03*
X330200Y330200D03*
X330200Y304800D03*
X330200Y279400D03*
X330200Y254000D03*
X330200Y228600D03*
X330200Y203200D03*
X330200Y177800D03*
X330200Y152400D03*
X330200Y127000D03*
X330200Y101600D03*
X330200Y76200D03*
D14*
X-117600Y-16000D02*
X-279400Y-177800D01*
X-117600Y-16000D02*
X-36000Y-16000D01*
D15*
X-279400Y-177800D02*
X-330200Y-177800D01*
D14*
X-279400Y-152400D02*
X-139000Y-12000D01*
X-45000Y-12000D01*
D15*
X-279400Y-152400D02*
X-322400Y-152400D01*
X-323000Y-153000D01*
X-329600Y-153000D01*
X-330200Y-152400D01*
D14*
X-279400Y-127000D02*
X-160400Y-8000D01*
X-36000Y-8000D01*
D15*
X-279400Y-127000D02*
X-330200Y-127000D01*
D14*
X-279400Y-101600D02*
X-181800Y-4000D01*
X-45000Y-4000D01*
D15*
X-279400Y-101600D02*
X-330200Y-101600D01*
D14*
X-279400Y-76200D02*
X-203200Y0D01*
X-36000Y0D01*
D15*
X-279400Y-76200D02*
X-330200Y-76200D01*
D14*
X-279400Y-50800D02*
X-224600Y4000D01*
X-45000Y4000D01*
D15*
X-279400Y-50800D02*
X-330200Y-50800D01*
D14*
X-279400Y-25400D02*
X-246000Y8000D01*
X-36000Y8000D01*
D15*
X-279400Y-25400D02*
X-330200Y-25400D01*
D14*
X-279400Y0D02*
X-267400Y12000D01*
X-45000Y12000D01*
D15*
X-279400Y0D02*
X-330200Y0D01*
D14*
X-279400Y25400D02*
X-270000Y16000D01*
X-36000Y16000D01*
D15*
X-279400Y25400D02*
X-330200Y25400D01*
D14*
X-279400Y50800D02*
X-248600Y20000D01*
X-45000Y20000D01*
D15*
X-279400Y50800D02*
X-330200Y50800D01*
D14*
X-279400Y76200D02*
X-227200Y24000D01*
X-36000Y24000D01*
D15*
X-279400Y76200D02*
X-330200Y76200D01*
D14*
X-279400Y101600D02*
X-205800Y28000D01*
X-45000Y28000D01*
D15*
X-279400Y101600D02*
X-330200Y101600D01*
D14*
X-76398Y32000D02*
X-36000Y32000D01*
X-126746Y82348D02*
X-126746Y87630D01*
X-166116Y127000D01*
X-279400Y127000D01*
X-126746Y82348D02*
X-76398Y32000D01*
D15*
X-279400Y127000D02*
X-330200Y127000D01*
D14*
X-76087Y36000D02*
X-45000Y36000D01*
X-76087Y36000D02*
X-123698Y83611D01*
X-154679Y152400D02*
X-279400Y152400D01*
X-123698Y121419D02*
X-123698Y83611D01*
X-123698Y121419D02*
X-154679Y152400D01*
D15*
X-279400Y152400D02*
X-330200Y152400D01*
D14*
X-75777Y40000D02*
X-36000Y40000D01*
X-75777Y40000D02*
X-120650Y84873D01*
X-120650Y122682D01*
X-175768Y177800D02*
X-279400Y177800D01*
X-175768Y177800D02*
X-120650Y122682D01*
D15*
X-279400Y177800D02*
X-330200Y177800D01*
D14*
X-75466Y44000D02*
X-45000Y44000D01*
X-132304Y203200D02*
X-279400Y203200D01*
X-117602Y86136D02*
X-75466Y44000D01*
X-117602Y86136D02*
X-117602Y188498D01*
X-132304Y203200D01*
D15*
X-279400Y203200D02*
X-330200Y203200D01*
D14*
X-75156Y48000D02*
X-36000Y48000D01*
X-153394Y228600D02*
X-279400Y228600D01*
X-114554Y87398D02*
X-75156Y48000D01*
X-114554Y87398D02*
X-114554Y189760D01*
X-153394Y228600D01*
D15*
X-279400Y228600D02*
X-330200Y228600D01*
D14*
X-74845Y52000D02*
X-45000Y52000D01*
X-174483Y254000D02*
X-279400Y254000D01*
X-111506Y88661D02*
X-74845Y52000D01*
X-111506Y88661D02*
X-111506Y191023D01*
X-174483Y254000D01*
D15*
X-279400Y254000D02*
X-330200Y254000D01*
D14*
X-74535Y56000D02*
X-36000Y56000D01*
X-195573Y279400D02*
X-279400Y279400D01*
X-108458Y89923D02*
X-74535Y56000D01*
X-108458Y89923D02*
X-108458Y192285D01*
X-195573Y279400D01*
D15*
X-279400Y279400D02*
X-330200Y279400D01*
D14*
X-74224Y60000D02*
X-45000Y60000D01*
X-216662Y304800D02*
X-279400Y304800D01*
X-105410Y91186D02*
X-74224Y60000D01*
X-105410Y91186D02*
X-105410Y193548D01*
X-216662Y304800D01*
D15*
X-279400Y304800D02*
X-330200Y304800D01*
D14*
X-8000Y-75000D02*
X-8000Y-90789D01*
X-26939Y-109728D01*
X-82938Y-109728D01*
X-269494Y-685800D02*
X-279400Y-685800D01*
X-197358Y-224148D02*
X-82938Y-109728D01*
X-197358Y-224148D02*
X-197358Y-613664D01*
X-269494Y-685800D01*
D15*
X-279400Y-685800D02*
X-330200Y-685800D01*
D14*
X-12000Y-90479D02*
X-12000Y-66000D01*
X-250698Y-660400D02*
X-279400Y-660400D01*
X-28201Y-106680D02*
X-12000Y-90479D01*
X-28201Y-106680D02*
X-84200Y-106680D01*
X-200406Y-222886D01*
X-200406Y-610108D01*
X-250698Y-660400D01*
D15*
X-279400Y-660400D02*
X-330200Y-660400D01*
D14*
X-16000Y-90168D02*
X-16000Y-75000D01*
X-16000Y-90168D02*
X-29464Y-103632D01*
X-85463Y-103632D01*
X-203454Y-221623D01*
X-203454Y-594614D01*
X-243840Y-635000D02*
X-279400Y-635000D01*
X-243840Y-635000D02*
X-203454Y-594614D01*
D15*
X-279400Y-635000D02*
X-330200Y-635000D01*
D14*
X-20000Y-88834D02*
X-20000Y-66000D01*
X-247904Y-609600D02*
X-279400Y-609600D01*
X-31750Y-100584D02*
X-20000Y-88834D01*
X-31750Y-100584D02*
X-86726Y-100584D01*
X-206502Y-220360D01*
X-206502Y-568198D01*
X-247904Y-609600D01*
D15*
X-279400Y-609600D02*
X-330200Y-609600D01*
D14*
X-24000Y-86992D02*
X-24000Y-75000D01*
X-246380Y-584200D02*
X-279400Y-584200D01*
X-34544Y-97536D02*
X-24000Y-86992D01*
X-34544Y-97536D02*
X-87988Y-97536D01*
X-209550Y-219098D01*
X-209550Y-547370D01*
X-246380Y-584200D01*
D15*
X-279400Y-584200D02*
X-330200Y-584200D01*
D14*
X-28000Y-83880D02*
X-28000Y-66000D01*
X-257556Y-558800D02*
X-279400Y-558800D01*
X-38608Y-94488D02*
X-28000Y-83880D01*
X-38608Y-94488D02*
X-89251Y-94488D01*
X-212598Y-217835D01*
X-212598Y-513842D01*
X-257556Y-558800D01*
D15*
X-279400Y-558800D02*
X-330200Y-558800D01*
D14*
X-32000Y-80253D02*
X-32000Y-75000D01*
X-250698Y-533400D02*
X-279400Y-533400D01*
X-43187Y-91440D02*
X-32000Y-80253D01*
X-43187Y-91440D02*
X-90513Y-91440D01*
X-215646Y-216573D01*
X-215646Y-498348D01*
X-250698Y-533400D01*
D15*
X-279400Y-533400D02*
X-330200Y-533400D01*
D14*
X-36000Y-79942D02*
X-36000Y-66000D01*
X-247904Y-508000D02*
X-279400Y-508000D01*
X-44450Y-88392D02*
X-36000Y-79942D01*
X-44450Y-88392D02*
X-91776Y-88392D01*
X-218694Y-215310D01*
X-218694Y-478790D01*
X-247904Y-508000D01*
D15*
X-279400Y-508000D02*
X-330200Y-508000D01*
D14*
X-82694Y-75000D02*
X-40000Y-75000D01*
X-245110Y-482600D02*
X-279400Y-482600D01*
X-221742Y-214048D02*
X-82694Y-75000D01*
X-221742Y-214048D02*
X-221742Y-459232D01*
X-245110Y-482600D01*
D15*
X-279400Y-482600D02*
X-330200Y-482600D01*
D14*
X-72005Y-60000D02*
X-45000Y-60000D01*
X-247142Y-457200D02*
X-279400Y-457200D01*
X-224790Y-212785D02*
X-72005Y-60000D01*
X-224790Y-212785D02*
X-224790Y-434848D01*
X-247142Y-457200D01*
D15*
X-279400Y-457200D02*
X-330200Y-457200D01*
D14*
X-72316Y-56000D02*
X-36000Y-56000D01*
X-251968Y-431800D02*
X-279400Y-431800D01*
X-227838Y-211523D02*
X-72316Y-56000D01*
X-227838Y-211523D02*
X-227838Y-407670D01*
X-251968Y-431800D01*
D15*
X-279400Y-431800D02*
X-330200Y-431800D01*
D14*
X-72626Y-52000D02*
X-45000Y-52000D01*
X-255016Y-406400D02*
X-279400Y-406400D01*
X-230886Y-210260D02*
X-72626Y-52000D01*
X-230886Y-210260D02*
X-230886Y-382270D01*
X-255016Y-406400D01*
D15*
X-279400Y-406400D02*
X-330200Y-406400D01*
D14*
X-72937Y-48000D02*
X-36000Y-48000D01*
X-256286Y-381000D02*
X-279400Y-381000D01*
X-233934Y-208997D02*
X-72937Y-48000D01*
X-233934Y-208997D02*
X-233934Y-358648D01*
X-256286Y-381000D01*
D15*
X-279400Y-381000D02*
X-330200Y-381000D01*
D14*
X-73247Y-44000D02*
X-45000Y-44000D01*
X-262890Y-355600D02*
X-279400Y-355600D01*
X-236982Y-207735D02*
X-73247Y-44000D01*
X-236982Y-207735D02*
X-236982Y-329692D01*
X-262890Y-355600D01*
D15*
X-279400Y-355600D02*
X-330200Y-355600D01*
D14*
X-73558Y-40000D02*
X-36000Y-40000D01*
X-261112Y-330200D02*
X-279400Y-330200D01*
X-240030Y-206472D02*
X-73558Y-40000D01*
X-240030Y-206472D02*
X-240030Y-309118D01*
X-261112Y-330200D01*
D15*
X-279400Y-330200D02*
X-330200Y-330200D01*
D14*
X-46600Y-36000D02*
X-45000Y-36000D01*
X-73868Y-36000D01*
X-266192Y-304800D02*
X-279400Y-304800D01*
X-243078Y-205210D02*
X-73868Y-36000D01*
X-243078Y-205210D02*
X-243078Y-281686D01*
X-266192Y-304800D01*
D15*
X-279400Y-304800D02*
X-330200Y-304800D01*
D14*
X-74179Y-32000D02*
X-36000Y-32000D01*
X-266954Y-279400D02*
X-279400Y-279400D01*
X-246126Y-203947D02*
X-74179Y-32000D01*
X-246126Y-203947D02*
X-246126Y-258572D01*
X-266954Y-279400D01*
D15*
X-279400Y-279400D02*
X-330200Y-279400D01*
D14*
X-74489Y-28000D02*
X-45000Y-28000D01*
X-249174Y-202685D02*
X-249174Y-225298D01*
X-277876Y-254000D01*
X-279400Y-254000D01*
X-249174Y-202685D02*
X-74489Y-28000D01*
D15*
X-279400Y-254000D02*
X-330200Y-254000D01*
D14*
X-279400Y-228600D02*
X-74800Y-24000D01*
X-36000Y-24000D01*
D15*
X-279400Y-228600D02*
X-330200Y-228600D01*
D14*
X-279400Y-203200D02*
X-96200Y-20000D01*
X-45000Y-20000D01*
D15*
X-279400Y-203200D02*
X-330200Y-203200D01*
D14*
X108200Y-32000D02*
X279400Y-203200D01*
X108200Y-32000D02*
X36000Y-32000D01*
D15*
X280416Y-202692D02*
X329184Y-202692D01*
D14*
X330200Y-203200D01*
X280416Y-202692D02*
X279400Y-203200D01*
X254000Y-219000D02*
X254000Y-182111D01*
X254000Y-219000D02*
X263600Y-228600D01*
X279400Y-228600D01*
X107889Y-36000D02*
X45000Y-36000D01*
X107889Y-36000D02*
X254000Y-182111D01*
D15*
X279400Y-228600D02*
X330200Y-228600D01*
D14*
X279400Y-254000D02*
X250952Y-225552D01*
X107579Y-40000D02*
X36000Y-40000D01*
X107579Y-40000D02*
X250952Y-183373D01*
X250952Y-225552D01*
D15*
X280416Y-252984D02*
X329184Y-252984D01*
D14*
X330200Y-254000D01*
X280416Y-252984D02*
X279400Y-254000D01*
X279400Y-276800D02*
X279400Y-279400D01*
X46600Y-44000D02*
X45000Y-44000D01*
X107268Y-44000D01*
X247904Y-247904D02*
X279400Y-279400D01*
X247904Y-184636D02*
X107268Y-44000D01*
X247904Y-184636D02*
X247904Y-247904D01*
D15*
X280416Y-278892D02*
X329184Y-278892D01*
D14*
X330200Y-279400D01*
X280416Y-278892D02*
X279400Y-279400D01*
X106958Y-48000D02*
X36000Y-48000D01*
X244856Y-270256D02*
X279400Y-304800D01*
X244856Y-185898D02*
X106958Y-48000D01*
X244856Y-185898D02*
X244856Y-270256D01*
D15*
X279400Y-304800D02*
X330200Y-304800D01*
D14*
X46600Y-52000D02*
X45000Y-52000D01*
X106647Y-52000D01*
X241808Y-292608D02*
X279400Y-330200D01*
X241808Y-187161D02*
X106647Y-52000D01*
X241808Y-187161D02*
X241808Y-292608D01*
D15*
X280416Y-329184D02*
X329184Y-329184D01*
D14*
X330200Y-330200D01*
X280416Y-329184D02*
X279400Y-330200D01*
X106337Y-56000D02*
X36000Y-56000D01*
X238760Y-314960D02*
X279400Y-355600D01*
X238760Y-188423D02*
X106337Y-56000D01*
X238760Y-188423D02*
X238760Y-314960D01*
D15*
X280416Y-355092D02*
X329184Y-355092D01*
D14*
X330200Y-355600D01*
X280416Y-355092D02*
X279400Y-355600D01*
X279400Y-381000D02*
X45000Y-146600D01*
X45000Y-60000D01*
D15*
X279400Y-381000D02*
X330200Y-381000D01*
D14*
X279400Y-406400D02*
X40000Y-167000D01*
X40000Y-75000D01*
D15*
X280416Y-405384D02*
X329184Y-405384D01*
D14*
X330200Y-406400D01*
X280416Y-405384D02*
X279400Y-406400D01*
X279400Y-431800D02*
X36000Y-188400D01*
X36000Y-66000D01*
D15*
X280416Y-431292D02*
X329184Y-431292D01*
D14*
X330200Y-431800D01*
X280416Y-431292D02*
X279400Y-431800D01*
X279400Y-457200D02*
X32000Y-209800D01*
X32000Y-75000D01*
D15*
X279400Y-457200D02*
X330200Y-457200D01*
D14*
X279400Y-482600D02*
X28000Y-231200D01*
X28000Y-66000D01*
D15*
X280416Y-481584D02*
X329184Y-481584D01*
D14*
X330200Y-482600D01*
X280416Y-481584D02*
X279400Y-482600D01*
X279400Y-508000D02*
X24000Y-252600D01*
X24000Y-75000D01*
D15*
X280416Y-507492D02*
X329184Y-507492D01*
D14*
X330200Y-508000D01*
X280416Y-507492D02*
X279400Y-508000D01*
X279400Y-533400D02*
X20000Y-274000D01*
X20000Y-66000D01*
D15*
X279400Y-533400D02*
X330200Y-533400D01*
D14*
X16000Y-297000D02*
X16000Y-75000D01*
X277800Y-558800D02*
X279400Y-558800D01*
X277800Y-558800D02*
X16000Y-297000D01*
D15*
X280416Y-557784D02*
X329184Y-557784D01*
D14*
X330200Y-558800D01*
X280416Y-557784D02*
X279400Y-558800D01*
X279400Y-584200D02*
X12000Y-316800D01*
X12000Y-66000D01*
D15*
X280416Y-583692D02*
X329184Y-583692D01*
D14*
X330200Y-584200D01*
X280416Y-583692D02*
X279400Y-584200D01*
X279400Y-609600D02*
X8000Y-338200D01*
X8000Y-75000D01*
D15*
X279400Y-609600D02*
X330200Y-609600D01*
D14*
X4000Y-405335D02*
X4000Y-66000D01*
X233665Y-635000D02*
X279400Y-635000D01*
X233665Y-635000D02*
X4000Y-405335D01*
D15*
X280416Y-633984D02*
X329184Y-633984D01*
D14*
X330200Y-635000D01*
X280416Y-633984D02*
X279400Y-635000D01*
X0Y-405645D02*
X0Y-75000D01*
X254755Y-660400D02*
X279400Y-660400D01*
X254755Y-660400D02*
X0Y-405645D01*
D15*
X280416Y-659892D02*
X329184Y-659892D01*
D14*
X330200Y-660400D01*
X280416Y-659892D02*
X279400Y-660400D01*
X-4000Y-405956D02*
X-4000Y-66000D01*
X275844Y-685800D02*
X279400Y-685800D01*
X275844Y-685800D02*
X-4000Y-405956D01*
D15*
X279400Y-685800D02*
X330200Y-685800D01*
D14*
X15000Y12000D02*
X10000Y12000D01*
D16*
X15000Y12000D03*
D15*
X242316Y-685800D02*
X242316Y-736092D01*
D14*
X241300Y-736600D01*
X241300Y-685800D02*
X242316Y-685800D01*
X15000Y4000D02*
X10000Y4000D01*
D16*
X15000Y4000D03*
D15*
X216408Y-685800D02*
X216408Y-736092D01*
D14*
X215900Y-736600D01*
X215900Y-685800D02*
X216408Y-685800D01*
X15000Y-4000D02*
X10000Y-4000D01*
D16*
X15000Y-4000D03*
D15*
X190500Y-685800D02*
X190500Y-736600D01*
D14*
X15000Y-12000D02*
X10000Y-12000D01*
D16*
X15000Y-12000D03*
D15*
X166116Y-685800D02*
X166116Y-736092D01*
D14*
X165100Y-736600D01*
X165100Y-685800D02*
X166116Y-685800D01*
X15000Y-20000D02*
X10000Y-20000D01*
D16*
X15000Y-20000D03*
D15*
X140208Y-685800D02*
X140208Y-736092D01*
D14*
X139700Y-736600D01*
X139700Y-685800D02*
X140208Y-685800D01*
X15000Y-28000D02*
X10000Y-28000D01*
D16*
X15000Y-28000D03*
D15*
X114300Y-685800D02*
X114300Y-736600D01*
D14*
X15000Y-36000D02*
X10000Y-36000D01*
D16*
X15000Y-36000D03*
D15*
X89916Y-685800D02*
X89916Y-736092D01*
D14*
X88900Y-736600D01*
X88900Y-685800D02*
X89916Y-685800D01*
X15000Y-44000D02*
X10000Y-44000D01*
D16*
X15000Y-44000D03*
D15*
X64008Y-685800D02*
X64008Y-736092D01*
D14*
X63500Y-736600D01*
X63500Y-685800D02*
X64008Y-685800D01*
X0Y-44000D02*
X-3202Y-44000D01*
D16*
X-3202Y-44000D03*
D15*
X38100Y-685800D02*
X38100Y-736600D01*
D14*
X0Y-36000D02*
X-3202Y-36000D01*
D16*
X-3202Y-36000D03*
D15*
X13716Y-685800D02*
X13716Y-736092D01*
D14*
X12700Y-736600D01*
X12700Y-685800D02*
X13716Y-685800D01*
X0Y-28000D02*
X-3202Y-28000D01*
D16*
X-3202Y-28000D03*
D15*
X-12192Y-685800D02*
X-12192Y-736092D01*
D14*
X-12700Y-736600D01*
X-12700Y-685800D02*
X-12192Y-685800D01*
X-3202Y-20000D02*
X0Y-20000D01*
D16*
X-3202Y-20000D03*
D15*
X-38100Y-685800D02*
X-38100Y-736600D01*
D14*
X-3202Y-12000D02*
X0Y-12000D01*
D16*
X-3202Y-12000D03*
D15*
X-62484Y-685800D02*
X-62484Y-736092D01*
D14*
X-63500Y-736600D01*
X-63500Y-685800D02*
X-62484Y-685800D01*
X-3202Y-4000D02*
X0Y-4000D01*
D16*
X-3202Y-4000D03*
D15*
X-88392Y-685800D02*
X-88392Y-736092D01*
D14*
X-88900Y-736600D01*
X-88900Y-685800D02*
X-88392Y-685800D01*
D16*
X-27000Y-44000D03*
D14*
X-10000Y-44000D01*
D15*
X-114300Y-685800D02*
X-114300Y-736600D01*
D16*
X-27000Y-36000D03*
D14*
X-10000Y-36000D01*
D15*
X-138684Y-685800D02*
X-138684Y-736092D01*
D14*
X-139700Y-736600D01*
X-139700Y-685800D02*
X-138684Y-685800D01*
X-27000Y-28000D02*
X-10000Y-28000D01*
D16*
X-27000Y-28000D03*
D15*
X-164592Y-685800D02*
X-164592Y-736092D01*
D14*
X-165100Y-736600D01*
X-165100Y-685800D02*
X-164592Y-685800D01*
X-27000Y-20000D02*
X-10000Y-20000D01*
D16*
X-27000Y-20000D03*
D15*
X-190500Y-685800D02*
X-190500Y-736600D01*
D14*
X-27000Y-12000D02*
X-10000Y-12000D01*
D16*
X-27000Y-12000D03*
D15*
X-214884Y-685800D02*
X-214884Y-736092D01*
D14*
X-215900Y-736600D01*
X-215900Y-685800D02*
X-214884Y-685800D01*
X-27000Y-4000D02*
X-10000Y-4000D01*
D16*
X-27000Y-4000D03*
D15*
X-240792Y-685800D02*
X-240792Y-736092D01*
D14*
X-241300Y-736600D01*
X-241300Y-685800D02*
X-240792Y-685800D01*
X10000Y20000D02*
X15768Y20000D01*
D16*
X15768Y20000D03*
D15*
X-279400Y812800D02*
X-330200Y812800D01*
D14*
X10000Y28000D02*
X16000Y28000D01*
D16*
X16000Y28000D03*
D15*
X-279400Y787400D02*
X-330200Y787400D01*
D14*
X10000Y36000D02*
X16000Y36000D01*
D16*
X16000Y36000D03*
D15*
X-279400Y762000D02*
X-330200Y762000D01*
D14*
X10000Y44000D02*
X16000Y44000D01*
D16*
X16000Y44000D03*
D15*
X-279400Y736600D02*
X-330200Y736600D01*
D14*
X-3202Y44000D02*
X0Y44000D01*
D16*
X-3202Y44000D03*
D15*
X-279400Y711200D02*
X-330200Y711200D01*
D14*
X-3202Y36000D02*
X0Y36000D01*
D16*
X-3202Y36000D03*
D15*
X-279400Y685800D02*
X-330200Y685800D01*
D14*
X-3202Y28000D02*
X0Y28000D01*
D16*
X-3202Y28000D03*
D15*
X-279400Y660400D02*
X-330200Y660400D01*
D14*
X-3202Y20000D02*
X0Y20000D01*
D16*
X-3202Y20000D03*
D15*
X-279400Y635000D02*
X-330200Y635000D01*
D14*
X-3202Y12000D02*
X0Y12000D01*
D16*
X-3202Y12000D03*
D15*
X-279400Y609600D02*
X-330200Y609600D01*
D14*
X-3202Y4000D02*
X0Y4000D01*
D16*
X-3202Y4000D03*
D15*
X-279400Y584200D02*
X-330200Y584200D01*
D14*
X-27000Y44000D02*
X-10000Y44000D01*
D16*
X-27000Y44000D03*
D15*
X-279400Y558800D02*
X-330200Y558800D01*
D14*
X-27000Y36000D02*
X-10000Y36000D01*
D16*
X-27000Y36000D03*
D15*
X-279400Y533400D02*
X-330200Y533400D01*
D14*
X-27000Y28000D02*
X-10000Y28000D01*
D16*
X-27000Y28000D03*
D15*
X-279400Y508000D02*
X-330200Y508000D01*
D14*
X-27000Y20000D02*
X-10000Y20000D01*
D16*
X-27000Y20000D03*
D15*
X-279400Y482600D02*
X-330200Y482600D01*
D14*
X-27000Y12000D02*
X-10000Y12000D01*
D16*
X-27000Y12000D03*
D15*
X-279400Y457200D02*
X-330200Y457200D01*
D14*
X-27000Y4000D02*
X-10000Y4000D01*
D16*
X-27000Y4000D03*
D15*
X-279400Y431800D02*
X-330200Y431800D01*
D14*
X-28000Y313000D02*
X-28000Y66000D01*
X-121400Y406400D02*
X-279400Y406400D01*
X-121400Y406400D02*
X-28000Y313000D01*
D15*
X-279400Y406400D02*
X-330200Y406400D01*
D14*
X-32000Y312689D02*
X-32000Y75000D01*
X-100311Y381000D02*
X-279400Y381000D01*
X-100311Y381000D02*
X-32000Y312689D01*
D15*
X-279400Y381000D02*
X-330200Y381000D01*
D14*
X-36000Y312379D02*
X-36000Y66000D01*
X-79221Y355600D02*
X-279400Y355600D01*
X-79221Y355600D02*
X-36000Y312379D01*
D15*
X-279400Y355600D02*
X-330200Y355600D01*
D14*
X-40000Y312068D02*
X-40000Y75000D01*
X-58132Y330200D02*
X-279400Y330200D01*
X-58132Y330200D02*
X-40000Y312068D01*
D15*
X-279400Y330200D02*
X-330200Y330200D01*
D14*
X-24000Y377000D02*
X-24000Y75000D01*
X244800Y812800D02*
X279400Y812800D01*
X155000Y556000D02*
X-24000Y377000D01*
X155000Y556000D02*
X155000Y723000D01*
X244800Y812800D01*
D15*
X280416Y813816D02*
X329184Y813816D01*
D14*
X330200Y812800D01*
X280416Y813816D02*
X279400Y812800D01*
X-20000Y376689D02*
X-20000Y66000D01*
X223711Y787400D02*
X279400Y787400D01*
X158048Y554737D02*
X-20000Y376689D01*
X158048Y554737D02*
X158048Y721737D01*
X223711Y787400D01*
D15*
X280416Y787908D02*
X329184Y787908D01*
D14*
X330200Y787400D01*
X280416Y787908D02*
X279400Y787400D01*
X-16000Y376379D02*
X-16000Y75000D01*
X202621Y762000D02*
X279400Y762000D01*
X161096Y553475D02*
X-16000Y376379D01*
X161096Y553475D02*
X161096Y720475D01*
X202621Y762000D01*
D15*
X279400Y762000D02*
X330200Y762000D01*
D14*
X-12000Y230037D02*
X-12000Y66000D01*
X248000Y735000D02*
X287000Y735000D01*
X285400Y736600D01*
X279400Y736600D01*
X197472Y439509D02*
X-12000Y230037D01*
X197472Y439509D02*
X197472Y684472D01*
X248000Y735000D01*
D15*
X286512Y736092D02*
X329184Y736092D01*
D14*
X330200Y736600D01*
X286512Y736092D02*
X279400Y736600D01*
X-8000Y229727D02*
X-8000Y75000D01*
X250200Y711200D02*
X279400Y711200D01*
X200520Y438247D02*
X-8000Y229727D01*
X200520Y438247D02*
X200520Y661520D01*
X250200Y711200D01*
D15*
X280416Y711708D02*
X329184Y711708D01*
D14*
X330200Y711200D01*
X280416Y711708D02*
X279400Y711200D01*
X-4000Y229416D02*
X-4000Y66000D01*
X241800Y685800D02*
X279400Y685800D01*
X203568Y436984D02*
X-4000Y229416D01*
X203568Y436984D02*
X203568Y647568D01*
X241800Y685800D01*
D15*
X279400Y685800D02*
X330200Y685800D01*
D14*
X0Y229106D02*
X0Y75000D01*
X246400Y660400D02*
X279400Y660400D01*
X206616Y435722D02*
X0Y229106D01*
X206616Y435722D02*
X206616Y620616D01*
X246400Y660400D01*
D15*
X280416Y661416D02*
X329184Y661416D01*
D14*
X330200Y660400D01*
X280416Y661416D02*
X279400Y660400D01*
X4000Y228795D02*
X4000Y66000D01*
X4000Y228795D02*
X209664Y434459D01*
X209664Y595664D01*
X248198Y634198D01*
X249000Y635000D01*
X248412Y633984D02*
X278892Y633984D01*
X279400Y635000D01*
X248412Y633984D02*
X248198Y634198D01*
D15*
X280416Y635508D02*
X329184Y635508D01*
D14*
X330200Y635000D01*
X280416Y635508D02*
X279400Y635000D01*
X8000Y228485D02*
X8000Y75000D01*
X251600Y609600D02*
X279400Y609600D01*
X212712Y433197D02*
X8000Y228485D01*
X212712Y433197D02*
X212712Y570712D01*
X251600Y609600D01*
D15*
X279400Y609600D02*
X330200Y609600D01*
D14*
X12000Y228174D02*
X12000Y66000D01*
X258200Y584200D02*
X279400Y584200D01*
X215760Y431934D02*
X12000Y228174D01*
X215760Y431934D02*
X215760Y541760D01*
X258200Y584200D01*
D15*
X280416Y585216D02*
X329184Y585216D01*
D14*
X330200Y584200D01*
X280416Y585216D02*
X279400Y584200D01*
X16000Y227863D02*
X16000Y75000D01*
X255800Y558800D02*
X279400Y558800D01*
X218808Y430671D02*
X16000Y227863D01*
X218808Y430671D02*
X218808Y521808D01*
X255800Y558800D01*
D15*
X280416Y559308D02*
X329184Y559308D01*
D14*
X330200Y558800D01*
X280416Y559308D02*
X279400Y558800D01*
X20114Y66114D02*
X20000Y66000D01*
X20114Y66114D02*
X20114Y227667D01*
X250400Y533400D02*
X279400Y533400D01*
X221856Y429409D02*
X20114Y227667D01*
X221856Y429409D02*
X221856Y504856D01*
X250400Y533400D01*
D15*
X279400Y533400D02*
X330200Y533400D01*
D14*
X24000Y227242D02*
X24000Y75000D01*
X276400Y505000D02*
X279400Y508000D01*
X224904Y428146D02*
X24000Y227242D01*
X224904Y428146D02*
X224904Y483904D01*
X246000Y505000D01*
X276400Y505000D01*
D15*
X280416Y509016D02*
X329184Y509016D01*
D14*
X330200Y508000D01*
X280416Y509016D02*
X279400Y508000D01*
X28000Y226932D02*
X28000Y66000D01*
X250600Y482600D02*
X279400Y482600D01*
X227952Y426884D02*
X28000Y226932D01*
X227952Y426884D02*
X227952Y459952D01*
X250600Y482600D01*
D15*
X280416Y483108D02*
X329184Y483108D01*
D14*
X330200Y482600D01*
X280416Y483108D02*
X279400Y482600D01*
X32000Y226621D02*
X32000Y75000D01*
X231000Y425621D02*
X231000Y443000D01*
X245200Y457200D01*
X279400Y457200D01*
X231000Y425621D02*
X32000Y226621D01*
D15*
X279400Y457200D02*
X330200Y457200D01*
D14*
X36000Y226311D02*
X36000Y66000D01*
X241489Y431800D02*
X279400Y431800D01*
X241489Y431800D02*
X36000Y226311D01*
D15*
X280416Y432816D02*
X329184Y432816D01*
D14*
X330200Y431800D01*
X280416Y432816D02*
X279400Y431800D01*
X40000Y226000D02*
X40000Y75000D01*
X220400Y406400D02*
X279400Y406400D01*
X220400Y406400D02*
X40000Y226000D01*
D15*
X280416Y406908D02*
X329184Y406908D01*
D14*
X330200Y406400D01*
X280416Y406908D02*
X279400Y406400D01*
X45000Y226689D02*
X45000Y60000D01*
X199311Y381000D02*
X279400Y381000D01*
X199311Y381000D02*
X45000Y226689D01*
D15*
X279400Y381000D02*
X330200Y381000D01*
D14*
X50000Y56000D02*
X36000Y56000D01*
X178221Y355600D02*
X279400Y355600D01*
X56000Y62000D02*
X50000Y56000D01*
X56000Y62000D02*
X56000Y233379D01*
X178221Y355600D01*
D15*
X280416Y356616D02*
X329184Y356616D01*
D14*
X330200Y355600D01*
X280416Y356616D02*
X279400Y355600D01*
X54000Y52000D02*
X45000Y52000D01*
X157132Y330200D02*
X279400Y330200D01*
X59048Y57048D02*
X54000Y52000D01*
X59048Y57048D02*
X59048Y232116D01*
X157132Y330200D01*
D15*
X280416Y330708D02*
X329184Y330708D01*
D14*
X330200Y330200D01*
X280416Y330708D02*
X279400Y330200D01*
X57000Y48000D02*
X36000Y48000D01*
X136042Y304800D02*
X279400Y304800D01*
X62096Y53096D02*
X57000Y48000D01*
X62096Y53096D02*
X62096Y230854D01*
X136042Y304800D01*
D15*
X279400Y304800D02*
X330200Y304800D01*
D14*
X57311Y44000D02*
X45000Y44000D01*
X57311Y44000D02*
X65144Y51833D01*
X175400Y279400D02*
X279400Y279400D01*
X65144Y169144D02*
X65144Y51833D01*
X65144Y169144D02*
X175400Y279400D01*
D15*
X280416Y280416D02*
X329184Y280416D01*
D14*
X330200Y279400D01*
X280416Y280416D02*
X279400Y279400D01*
X279400Y254000D02*
X65400Y40000D01*
X36000Y40000D01*
D15*
X280416Y254508D02*
X329184Y254508D01*
D14*
X330200Y254000D01*
X280416Y254508D02*
X279400Y254000D01*
X279400Y228600D02*
X86800Y36000D01*
X45000Y36000D01*
D15*
X279400Y228600D02*
X330200Y228600D01*
D14*
X279400Y203200D02*
X108200Y32000D01*
X36000Y32000D01*
D15*
X280416Y204216D02*
X329184Y204216D01*
D14*
X330200Y203200D01*
X280416Y204216D02*
X279400Y203200D01*
X279400Y177800D02*
X129600Y28000D01*
X45000Y28000D01*
D15*
X280416Y178308D02*
X329184Y178308D01*
D14*
X330200Y177800D01*
X280416Y178308D02*
X279400Y177800D01*
X279400Y152400D02*
X151000Y24000D01*
X36000Y24000D01*
D15*
X279400Y152400D02*
X330200Y152400D01*
D14*
X279400Y127000D02*
X172400Y20000D01*
X45000Y20000D01*
D15*
X280416Y128016D02*
X329184Y128016D01*
D14*
X330200Y127000D01*
X280416Y128016D02*
X279400Y127000D01*
X279400Y101600D02*
X193800Y16000D01*
X36000Y16000D01*
D15*
X280416Y102108D02*
X329184Y102108D01*
D14*
X330200Y101600D01*
X280416Y102108D02*
X279400Y101600D01*
X279400Y76200D02*
X215200Y12000D01*
X45000Y12000D01*
D15*
X279400Y76200D02*
X330200Y76200D01*
D14*
X279400Y50800D02*
X236600Y8000D01*
X36000Y8000D01*
D15*
X280416Y51816D02*
X329184Y51816D01*
D14*
X330200Y50800D01*
X280416Y51816D02*
X279400Y50800D01*
X279400Y25400D02*
X258000Y4000D01*
X45000Y4000D01*
D15*
X280416Y25908D02*
X329184Y25908D01*
D14*
X330200Y25400D01*
X280416Y25908D02*
X279400Y25400D01*
X279400Y0D02*
X36000Y0D01*
D15*
X279400Y0D02*
X330200Y0D01*
D14*
X279400Y-25400D02*
X258000Y-4000D01*
X45000Y-4000D01*
D15*
X280416Y-24384D02*
X329184Y-24384D01*
D14*
X330200Y-25400D01*
X280416Y-24384D02*
X279400Y-25400D01*
X279400Y-50800D02*
X236600Y-8000D01*
X36000Y-8000D01*
D15*
X280416Y-50292D02*
X329184Y-50292D01*
D14*
X330200Y-50800D01*
X280416Y-50292D02*
X279400Y-50800D01*
X279400Y-76200D02*
X215200Y-12000D01*
X45000Y-12000D01*
D15*
X279400Y-76200D02*
X330200Y-76200D01*
D14*
X279400Y-101600D02*
X193800Y-16000D01*
X36000Y-16000D01*
D15*
X280416Y-100584D02*
X329184Y-100584D01*
D14*
X330200Y-101600D01*
X280416Y-100584D02*
X279400Y-101600D01*
X279400Y-127000D02*
X172400Y-20000D01*
X45000Y-20000D01*
D15*
X280416Y-126492D02*
X329184Y-126492D01*
D14*
X330200Y-127000D01*
X280416Y-126492D02*
X279400Y-127000D01*
X279400Y-152400D02*
X151000Y-24000D01*
X36000Y-24000D01*
D15*
X279400Y-152400D02*
X330200Y-152400D01*
D14*
X279400Y-177800D02*
X129600Y-28000D01*
X45000Y-28000D01*
D15*
X280416Y-176784D02*
X329184Y-176784D01*
D14*
X330200Y-177800D01*
X280416Y-176784D02*
X279400Y-177800D01*
M02*
