G04 EAGLE Gerber RS-274X export*
G75*
%MOMM*%
%FSLAX34Y34*%
%LPD*%
%INBottom Copper*%
%IPPOS*%
%AMOC8*
5,1,8,0,0,1.08239X$1,22.5*%
G01*
%ADD10C,1.879600*%
%ADD11C,0.604800*%
%ADD12C,0.152400*%


D10*
X-279400Y-177800D03*
X-279400Y-152400D03*
X-279400Y-127000D03*
X-279400Y-101600D03*
X-279400Y-76200D03*
X-279400Y-50800D03*
X-279400Y-25400D03*
X-279400Y0D03*
X-279400Y25400D03*
X-279400Y50800D03*
X-279400Y76200D03*
X-279400Y101600D03*
X-279400Y127000D03*
X-279400Y152400D03*
X-279400Y177800D03*
X-279400Y203200D03*
X-279400Y228600D03*
X-279400Y254000D03*
X-279400Y279400D03*
X-279400Y304800D03*
X-279400Y-685800D03*
X-279400Y-660400D03*
X-279400Y-635000D03*
X-279400Y-609600D03*
X-279400Y-584200D03*
X-279400Y-558800D03*
X-279400Y-533400D03*
X-279400Y-508000D03*
X-279400Y-482600D03*
X-279400Y-457200D03*
X-279400Y-431800D03*
X-279400Y-406400D03*
X-279400Y-381000D03*
X-279400Y-355600D03*
X-279400Y-330200D03*
X-279400Y-304800D03*
X-279400Y-279400D03*
X-279400Y-254000D03*
X-279400Y-228600D03*
X-279400Y-203200D03*
X279400Y-203200D03*
X279400Y-228600D03*
X279400Y-254000D03*
X279400Y-279400D03*
X279400Y-304800D03*
X279400Y-330200D03*
X279400Y-355600D03*
X279400Y-381000D03*
X279400Y-406400D03*
X279400Y-431800D03*
X279400Y-457200D03*
X279400Y-482600D03*
X279400Y-508000D03*
X279400Y-533400D03*
X279400Y-558800D03*
X279400Y-584200D03*
X279400Y-609600D03*
X279400Y-635000D03*
X279400Y-660400D03*
X279400Y-685800D03*
X241300Y-685800D03*
X215900Y-685800D03*
X190500Y-685800D03*
X165100Y-685800D03*
X139700Y-685800D03*
X114300Y-685800D03*
X88900Y-685800D03*
X63500Y-685800D03*
X38100Y-685800D03*
X12700Y-685800D03*
X-12700Y-685800D03*
X-38100Y-685800D03*
X-63500Y-685800D03*
X-88900Y-685800D03*
X-114300Y-685800D03*
X-139700Y-685800D03*
X-165100Y-685800D03*
X-190500Y-685800D03*
X-215900Y-685800D03*
X-241300Y-685800D03*
X-279400Y812800D03*
X-279400Y787400D03*
X-279400Y762000D03*
X-279400Y736600D03*
X-279400Y711200D03*
X-279400Y685800D03*
X-279400Y660400D03*
X-279400Y635000D03*
X-279400Y609600D03*
X-279400Y584200D03*
X-279400Y558800D03*
X-279400Y533400D03*
X-279400Y508000D03*
X-279400Y482600D03*
X-279400Y457200D03*
X-279400Y431800D03*
X-279400Y406400D03*
X-279400Y381000D03*
X-279400Y355600D03*
X-279400Y330200D03*
X279400Y812800D03*
X279400Y787400D03*
X279400Y762000D03*
X279400Y736600D03*
X279400Y711200D03*
X279400Y685800D03*
X279400Y660400D03*
X279400Y635000D03*
X279400Y609600D03*
X279400Y584200D03*
X279400Y558800D03*
X279400Y533400D03*
X279400Y508000D03*
X279400Y482600D03*
X279400Y457200D03*
X279400Y431800D03*
X279400Y406400D03*
X279400Y381000D03*
X279400Y355600D03*
X279400Y330200D03*
X279400Y304800D03*
X279400Y279400D03*
X279400Y254000D03*
X279400Y228600D03*
X279400Y203200D03*
X279400Y177800D03*
X279400Y152400D03*
X279400Y127000D03*
X279400Y101600D03*
X279400Y76200D03*
X279400Y50800D03*
X279400Y25400D03*
X279400Y0D03*
X279400Y-25400D03*
X279400Y-50800D03*
X279400Y-76200D03*
X279400Y-101600D03*
X279400Y-127000D03*
X279400Y-152400D03*
X279400Y-177800D03*
X-330200Y-177800D03*
X-330200Y-152400D03*
X-330200Y-127000D03*
X-330200Y-101600D03*
X-330200Y-76200D03*
X-330200Y-50800D03*
X-330200Y-25400D03*
X-330200Y0D03*
X-330200Y25400D03*
X-330200Y50800D03*
X-330200Y76200D03*
X-330200Y101600D03*
X-330200Y127000D03*
X-330200Y152400D03*
X-330200Y177800D03*
X-330200Y203200D03*
X-330200Y228600D03*
X-330200Y254000D03*
X-330200Y279400D03*
X-330200Y304800D03*
X-330200Y-685800D03*
X-330200Y-660400D03*
X-330200Y-635000D03*
X-330200Y-609600D03*
X-330200Y-584200D03*
X-330200Y-558800D03*
X-330200Y-533400D03*
X-330200Y-508000D03*
X-330200Y-482600D03*
X-330200Y-457200D03*
X-330200Y-431800D03*
X-330200Y-406400D03*
X-330200Y-381000D03*
X-330200Y-355600D03*
X-330200Y-330200D03*
X-330200Y-304800D03*
X-330200Y-279400D03*
X-330200Y-254000D03*
X-330200Y-228600D03*
X-330200Y-203200D03*
X330200Y-203200D03*
X330200Y-228600D03*
X330200Y-254000D03*
X330200Y-279400D03*
X330200Y-304800D03*
X330200Y-330200D03*
X330200Y-355600D03*
X330200Y-381000D03*
X330200Y-406400D03*
X330200Y-431800D03*
X330200Y-457200D03*
X330200Y-482600D03*
X330200Y-508000D03*
X330200Y-533400D03*
X330200Y-558800D03*
X330200Y-584200D03*
X330200Y-609600D03*
X330200Y-635000D03*
X330200Y-660400D03*
X330200Y-685800D03*
X330200Y50800D03*
X330200Y25400D03*
X330200Y0D03*
X330200Y-25400D03*
X330200Y-50800D03*
X330200Y-76200D03*
X330200Y-101600D03*
X330200Y-127000D03*
X330200Y-152400D03*
X330200Y-177800D03*
X241300Y-736600D03*
X215900Y-736600D03*
X190500Y-736600D03*
X165100Y-736600D03*
X139700Y-736600D03*
X114300Y-736600D03*
X88900Y-736600D03*
X63500Y-736600D03*
X38100Y-736600D03*
X12700Y-736600D03*
X-12700Y-736600D03*
X-38100Y-736600D03*
X-63500Y-736600D03*
X-88900Y-736600D03*
X-114300Y-736600D03*
X-139700Y-736600D03*
X-165100Y-736600D03*
X-190500Y-736600D03*
X-215900Y-736600D03*
X-241300Y-736600D03*
X-330200Y812800D03*
X-330200Y787400D03*
X-330200Y762000D03*
X-330200Y736600D03*
X-330200Y711200D03*
X-330200Y685800D03*
X-330200Y660400D03*
X-330200Y635000D03*
X-330200Y609600D03*
X-330200Y584200D03*
X-330200Y558800D03*
X-330200Y533400D03*
X-330200Y508000D03*
X-330200Y482600D03*
X-330200Y457200D03*
X-330200Y431800D03*
X-330200Y406400D03*
X-330200Y381000D03*
X-330200Y355600D03*
X-330200Y330200D03*
X330200Y812800D03*
X330200Y787400D03*
X330200Y762000D03*
X330200Y736600D03*
X330200Y711200D03*
X330200Y685800D03*
X330200Y660400D03*
X330200Y635000D03*
X330200Y609600D03*
X330200Y584200D03*
X330200Y558800D03*
X330200Y533400D03*
X330200Y508000D03*
X330200Y482600D03*
X330200Y457200D03*
X330200Y431800D03*
X330200Y406400D03*
X330200Y381000D03*
X330200Y355600D03*
X330200Y330200D03*
X330200Y304800D03*
X330200Y279400D03*
X330200Y254000D03*
X330200Y228600D03*
X330200Y203200D03*
X330200Y177800D03*
X330200Y152400D03*
X330200Y127000D03*
X330200Y101600D03*
X330200Y76200D03*
D11*
X15000Y12000D03*
D12*
X39288Y-12288D01*
X241300Y-484300D02*
X241300Y-685800D01*
X39288Y-282288D02*
X39288Y-12288D01*
X39288Y-282288D02*
X241300Y-484300D01*
D11*
X15000Y4000D03*
D12*
X36240Y-17240D01*
X215900Y-482900D02*
X215900Y-685800D01*
X36240Y-303240D02*
X36240Y-17240D01*
X36240Y-303240D02*
X215900Y-482900D01*
D11*
X15000Y-4000D03*
D12*
X33192Y-22192D01*
X190500Y-476500D02*
X190500Y-685800D01*
X33192Y-319192D02*
X33192Y-22192D01*
X33192Y-319192D02*
X190500Y-476500D01*
D11*
X15000Y-12000D03*
D12*
X30144Y-27144D01*
X165100Y-466100D02*
X165100Y-685800D01*
X30144Y-331144D02*
X30144Y-27144D01*
X30144Y-331144D02*
X165100Y-466100D01*
D11*
X15000Y-20000D03*
D12*
X27096Y-32096D01*
X139700Y-459700D02*
X139700Y-685800D01*
X27096Y-347096D02*
X27096Y-32096D01*
X27096Y-347096D02*
X139700Y-459700D01*
D11*
X15000Y-28000D03*
D12*
X24048Y-37048D01*
X114300Y-453300D02*
X114300Y-685800D01*
X24048Y-363048D02*
X24048Y-37048D01*
X24048Y-363048D02*
X114300Y-453300D01*
D11*
X15000Y-36000D03*
D12*
X21000Y-42000D01*
X88900Y-457900D02*
X88900Y-685800D01*
X21000Y-390000D02*
X21000Y-42000D01*
X21000Y-390000D02*
X88900Y-457900D01*
D11*
X15000Y-44000D03*
D12*
X15000Y-418000D01*
X63500Y-466500D02*
X63500Y-685800D01*
X63500Y-466500D02*
X15000Y-418000D01*
D11*
X-3202Y-44000D03*
D12*
X-3202Y-49755D01*
X-73660Y-120213D01*
X-73660Y-375340D01*
X38100Y-487100D02*
X38100Y-685800D01*
X38100Y-487100D02*
X-73660Y-375340D01*
D11*
X-3202Y-36000D03*
D12*
X-5808Y-36000D01*
X-8808Y-39000D01*
X12700Y-510700D02*
X12700Y-685800D01*
X-8808Y-51050D02*
X-8808Y-39000D01*
X-8808Y-51050D02*
X-76708Y-118950D01*
X-76708Y-421292D01*
X12700Y-510700D01*
D11*
X-3202Y-28000D03*
D12*
X-8000Y-28000D01*
X-12700Y-532300D02*
X-12700Y-685800D01*
X-11856Y-31856D02*
X-8000Y-28000D01*
X-11856Y-31856D02*
X-11856Y-49788D01*
X-79756Y-117688D01*
X-79756Y-465244D01*
X-12700Y-532300D01*
D11*
X-3202Y-20000D03*
D12*
X-10000Y-20000D01*
X-38100Y-541900D02*
X-38100Y-685800D01*
X-14904Y-24904D02*
X-10000Y-20000D01*
X-14904Y-24904D02*
X-14904Y-48525D01*
X-82804Y-116425D01*
X-82804Y-497196D01*
X-38100Y-541900D01*
D11*
X-3202Y-12000D03*
D12*
X-12000Y-12000D01*
X-63500Y-557500D02*
X-63500Y-685800D01*
X-17952Y-17952D02*
X-12000Y-12000D01*
X-17952Y-17952D02*
X-17952Y-47263D01*
X-85852Y-115163D01*
X-85852Y-535148D01*
X-63500Y-557500D01*
D11*
X-3202Y-4000D03*
D12*
X-15000Y-4000D01*
X-88900Y-113900D02*
X-88900Y-685800D01*
X-21000Y-10000D02*
X-15000Y-4000D01*
X-21000Y-10000D02*
X-21000Y-46000D01*
X-88900Y-113900D01*
D11*
X-27000Y-44000D03*
D12*
X-89447Y-44000D01*
X-224300Y-178853D02*
X-224300Y-575800D01*
X-114300Y-685800D01*
X-224300Y-178853D02*
X-89447Y-44000D01*
D11*
X-27000Y-36000D03*
D12*
X-85758Y-36000D01*
X-227700Y-177942D02*
X-227700Y-597800D01*
X-139700Y-685800D01*
X-227700Y-177942D02*
X-85758Y-36000D01*
D11*
X-27000Y-28000D03*
D12*
X-82068Y-28000D01*
X-231100Y-177032D02*
X-231100Y-619800D01*
X-165100Y-685800D01*
X-231100Y-177032D02*
X-82068Y-28000D01*
D11*
X-27000Y-20000D03*
D12*
X-78379Y-20000D01*
X-234500Y-176121D02*
X-234500Y-641800D01*
X-190500Y-685800D01*
X-234500Y-176121D02*
X-78379Y-20000D01*
D11*
X-27000Y-12000D03*
D12*
X-74689Y-12000D01*
X-237900Y-175211D02*
X-237900Y-663800D01*
X-215900Y-685800D01*
X-237900Y-175211D02*
X-74689Y-12000D01*
D11*
X-27000Y-4000D03*
D12*
X-71000Y-4000D01*
X-241300Y-174300D02*
X-241300Y-685800D01*
X-241300Y-174300D02*
X-71000Y-4000D01*
D11*
X15768Y20000D03*
D12*
X47000Y20000D01*
X-156800Y812800D02*
X-279400Y812800D01*
X61000Y34000D02*
X47000Y20000D01*
X61000Y34000D02*
X61000Y595000D01*
X-156800Y812800D01*
D11*
X16000Y28000D03*
D12*
X50689Y28000D01*
X-135711Y787400D02*
X-279400Y787400D01*
X57952Y35263D02*
X50689Y28000D01*
X57952Y35263D02*
X57952Y593737D01*
X-135711Y787400D01*
D11*
X16000Y36000D03*
D12*
X41904Y36000D01*
X54904Y49000D01*
X-114621Y762000D02*
X-279400Y762000D01*
X54904Y592475D02*
X54904Y49000D01*
X54904Y592475D02*
X-114621Y762000D01*
D11*
X16000Y44000D03*
D12*
X45593Y44000D01*
X-93532Y736600D02*
X-279400Y736600D01*
X51856Y50263D02*
X45593Y44000D01*
X51856Y50263D02*
X51856Y591212D01*
X-93532Y736600D01*
D11*
X-3202Y44000D03*
D12*
X-3202Y49755D01*
X-198472Y245025D01*
X-237200Y711200D02*
X-279400Y711200D01*
X-198472Y672472D02*
X-198472Y245025D01*
X-198472Y672472D02*
X-237200Y711200D01*
D11*
X-3202Y36000D03*
D12*
X-5808Y36000D01*
X-8808Y39000D01*
X-8808Y51050D01*
X-201520Y243762D01*
X-237800Y685800D02*
X-279400Y685800D01*
X-201520Y649520D02*
X-201520Y243762D01*
X-201520Y649520D02*
X-237800Y685800D01*
D11*
X-3202Y28000D03*
D12*
X-8856Y28000D01*
X-11856Y31000D01*
X-11856Y49788D01*
X-204568Y242500D01*
X-242400Y660400D02*
X-279400Y660400D01*
X-204568Y622568D02*
X-204568Y242500D01*
X-204568Y622568D02*
X-242400Y660400D01*
D11*
X-3202Y20000D03*
D12*
X-9000Y20000D01*
X-14904Y25904D01*
X-14904Y48525D01*
X-247000Y635000D02*
X-279400Y635000D01*
X-207616Y241237D02*
X-14904Y48525D01*
X-207616Y241237D02*
X-207616Y595616D01*
X-247000Y635000D01*
D11*
X-3202Y12000D03*
D12*
X-13000Y12000D01*
X-17952Y16952D01*
X-17952Y47263D01*
X-244600Y609600D02*
X-279400Y609600D01*
X-210664Y239975D02*
X-17952Y47263D01*
X-210664Y239975D02*
X-210664Y575664D01*
X-244600Y609600D01*
D11*
X-3202Y4000D03*
D12*
X-14000Y4000D01*
X-21000Y11000D01*
X-21000Y46000D01*
X-254200Y584200D02*
X-279400Y584200D01*
X-213712Y238712D02*
X-21000Y46000D01*
X-213712Y238712D02*
X-213712Y543712D01*
X-254200Y584200D01*
D11*
X-27000Y44000D03*
D12*
X-88447Y44000D01*
X-254800Y558800D02*
X-279400Y558800D01*
X-216760Y172313D02*
X-88447Y44000D01*
X-216760Y172313D02*
X-216760Y520760D01*
X-254800Y558800D01*
D11*
X-27000Y36000D03*
D12*
X-84758Y36000D01*
X-254400Y533400D02*
X-279400Y533400D01*
X-219808Y171050D02*
X-84758Y36000D01*
X-219808Y171050D02*
X-219808Y498808D01*
X-254400Y533400D01*
D11*
X-27000Y28000D03*
D12*
X-81068Y28000D01*
X-222856Y473856D02*
X-257000Y508000D01*
X-279400Y508000D01*
X-222856Y169788D02*
X-81068Y28000D01*
X-222856Y169788D02*
X-222856Y473856D01*
D11*
X-27000Y20000D03*
D12*
X-77379Y20000D01*
X-260600Y482600D02*
X-279400Y482600D01*
X-225904Y168525D02*
X-77379Y20000D01*
X-225904Y168525D02*
X-225904Y447904D01*
X-260600Y482600D01*
D11*
X-27000Y12000D03*
D12*
X-73689Y12000D01*
X-262200Y457200D02*
X-279400Y457200D01*
X-228952Y167263D02*
X-73689Y12000D01*
X-228952Y167263D02*
X-228952Y423952D01*
X-262200Y457200D01*
D11*
X-27000Y4000D03*
D12*
X-70000Y4000D01*
X-267800Y431800D02*
X-279400Y431800D01*
X-232000Y166000D02*
X-70000Y4000D01*
X-232000Y166000D02*
X-232000Y396000D01*
X-267800Y431800D01*
M02*
