M48
;GenerationSoftware,Autodesk,EAGLE,9.6.2*%
;CreationDate,2021-06-27T19:53:34Z*%
FMAT,2
ICI,OFF
METRIC,TZ,000.000
T2C0.300
T1C1.016
%
G90
M71
T1
X-27940Y-10160
X-33020Y45720
X-33020Y43180
X-33020Y40640
X-33020Y38100
X-33020Y35560
X-33020Y33020
X33020Y81280
X33020Y78740
X33020Y76200
X33020Y73660
X33020Y71120
X33020Y68580
X33020Y66040
X33020Y63500
X33020Y60960
X33020Y58420
X33020Y55880
X33020Y53340
X33020Y50800
X33020Y48260
X33020Y45720
X33020Y43180
X33020Y40640
X33020Y38100
X33020Y35560
X33020Y33020
X33020Y30480
X33020Y27940
X33020Y25400
X33020Y22860
X33020Y20320
X33020Y17780
X33020Y15240
X33020Y12700
X33020Y10160
X-27940Y-17780
X-27940Y-15240
X-27940Y-12700
X27940Y-25400
X-27940Y-7620
X-27940Y-5080
X-27940Y-2540
X-27940Y0
X-27940Y2540
X-27940Y5080
X-27940Y7620
X-27940Y10160
X-27940Y12700
X-27940Y15240
X-27940Y17780
X-27940Y20320
X-27940Y22860
X-27940Y25400
X-27940Y27940
X-27940Y30480
X-27940Y-68580
X-27940Y-66040
X-27940Y-63500
X-27940Y-60960
X-27940Y-58420
X-27940Y-55880
X-27940Y-53340
X-27940Y-50800
X-27940Y-48260
X-27940Y-45720
X-27940Y-43180
X-27940Y-40640
X-27940Y-38100
X-27940Y-35560
X-27940Y-33020
X-27940Y-30480
X-27940Y-27940
X-27940Y-25400
X-27940Y-22860
X-27940Y-20320
X27940Y-20320
X27940Y-22860
X33020Y7620
X27940Y-27940
X27940Y-30480
X27940Y-33020
X27940Y-35560
X27940Y-38100
X27940Y-40640
X27940Y-43180
X27940Y-45720
X27940Y-48260
X27940Y-50800
X27940Y-53340
X27940Y-55880
X27940Y-58420
X27940Y-60960
X27940Y-63500
X27940Y-66040
X27940Y-68580
X24130Y-68580
X21590Y-68580
X19050Y-68580
X16510Y-68580
X13970Y-68580
X11430Y-68580
X8890Y-68580
X6350Y-68580
X3810Y-68580
X1270Y-68580
X-1270Y-68580
X-3810Y-68580
X-6350Y-68580
X-8890Y-68580
X-11430Y-68580
X-13970Y-68580
X-16510Y-68580
X-19050Y-68580
X-21590Y-68580
X-24130Y-68580
X-27940Y81280
X-27940Y78740
X-27940Y76200
X-27940Y73660
X-27940Y71120
X-27940Y68580
X-27940Y66040
X-27940Y63500
X-27940Y60960
X-27940Y58420
X-27940Y55880
X-27940Y53340
X-27940Y50800
X-27940Y48260
X-27940Y45720
X-27940Y43180
X-27940Y40640
X-27940Y38100
X-27940Y35560
X-27940Y33020
X27940Y81280
X27940Y78740
X27940Y76200
X27940Y73660
X27940Y71120
X27940Y68580
X27940Y66040
X27940Y63500
X27940Y60960
X27940Y58420
X27940Y55880
X27940Y53340
X27940Y50800
X27940Y48260
X27940Y45720
X27940Y43180
X27940Y40640
X27940Y38100
X27940Y35560
X27940Y33020
X27940Y30480
X27940Y27940
X27940Y25400
X27940Y22860
X27940Y20320
X27940Y17780
X27940Y15240
X27940Y12700
X27940Y10160
X27940Y7620
X27940Y5080
X27940Y2540
X27940Y0
X27940Y-2540
X27940Y-5080
X27940Y-7620
X27940Y-10160
X27940Y-12700
X27940Y-15240
X27940Y-17780
X-33020Y-17780
X-33020Y-15240
X-33020Y-12700
X-33020Y-10160
X-33020Y-7620
X-33020Y-5080
X-33020Y-2540
X-33020Y0
X-33020Y2540
X-33020Y5080
X-33020Y7620
X-33020Y10160
X-33020Y12700
X-33020Y15240
X-33020Y17780
X-33020Y20320
X-33020Y22860
X-33020Y25400
X-33020Y27940
X-33020Y30480
X-33020Y-68580
X-33020Y-66040
X-33020Y-63500
X-33020Y-60960
X-33020Y-58420
X-33020Y-55880
X-33020Y-53340
X-33020Y-50800
X-33020Y-48260
X-33020Y-45720
X-33020Y-43180
X-33020Y-40640
X-33020Y-38100
X-33020Y-35560
X-33020Y-33020
X-33020Y-30480
X-33020Y-27940
X-33020Y-25400
X-33020Y-22860
X-33020Y-20320
X33020Y-20320
X33020Y-22860
X33020Y-25400
X33020Y-27940
X33020Y-30480
X33020Y-33020
X33020Y-35560
X33020Y-38100
X33020Y-40640
X33020Y-43180
X33020Y-45720
X33020Y-48260
X33020Y-50800
X33020Y-53340
X33020Y-55880
X33020Y-58420
X33020Y-60960
X33020Y-63500
X33020Y-66040
X33020Y-68580
X33020Y5080
X33020Y2540
X33020Y0
X33020Y-2540
X33020Y-5080
X33020Y-7620
X33020Y-10160
X33020Y-12700
X33020Y-15240
X33020Y-17780
X24130Y-73660
X21590Y-73660
X19050Y-73660
X16510Y-73660
X13970Y-73660
X11430Y-73660
X8890Y-73660
X6350Y-73660
X3810Y-73660
X1270Y-73660
X-1270Y-73660
X-3810Y-73660
X-6350Y-73660
X-8890Y-73660
X-11430Y-73660
X-13970Y-73660
X-16510Y-73660
X-19050Y-73660
X-21590Y-73660
X-24130Y-73660
X-33020Y81280
X-33020Y78740
X-33020Y76200
X-33020Y73660
X-33020Y71120
X-33020Y68580
X-33020Y66040
X-33020Y63500
X-33020Y60960
X-33020Y58420
X-33020Y55880
X-33020Y53340
X-33020Y50800
X-33020Y48260
T2
X1500Y400
X1500Y-400
X1500Y-1200
X1500Y-2000
X1500Y-2800
X1500Y-3600
X1500Y-4400
X-320Y-4400
X-320Y-3600
X-320Y-2800
X-320Y-2000
X-320Y-1200
X-320Y-400
X-2700Y-4400
X-2700Y-3600
X-2700Y-2800
X-2700Y-2000
X-2700Y-1200
X-2700Y-400
X1577Y2000
X1600Y2800
X1600Y3600
X1600Y4400
X-320Y4400
X-320Y3600
X-320Y2800
X-320Y2000
X-320Y1200
X-320Y400
X-2700Y4400
X-2700Y3600
X-2700Y2800
X-2700Y2000
X-2700Y1200
X-2700Y400
X1500Y1200
M30