G04 EAGLE Gerber RS-274X export*
G75*
%MOMM*%
%FSLAX34Y34*%
%LPD*%
%INSoldermask Top*%
%IPPOS*%
%AMOC8*
5,1,8,0,0,1.08239X$1,22.5*%
G01*
%ADD10R,0.653200X0.653200*%
%ADD11R,0.843200X0.523200*%
%ADD12R,0.523200X0.843200*%
%ADD13C,2.082800*%


D10*
X0Y44000D03*
X0Y36000D03*
X0Y28000D03*
X0Y20000D03*
X0Y12000D03*
X0Y4000D03*
X0Y-4000D03*
X0Y-12000D03*
X0Y-20000D03*
X0Y-28000D03*
X0Y-36000D03*
X0Y-44000D03*
X-10000Y44000D03*
X-10000Y36000D03*
X-10000Y28000D03*
X-10000Y20000D03*
X-10000Y12000D03*
X-10000Y4000D03*
X-10000Y-4000D03*
X-10000Y-12000D03*
X-10000Y-20000D03*
X-10000Y-28000D03*
X-10000Y-36000D03*
X-10000Y-44000D03*
X10000Y44000D03*
X10000Y36000D03*
X10000Y28000D03*
X10000Y20000D03*
X10000Y12000D03*
X10000Y4000D03*
X10000Y-4000D03*
X10000Y-12000D03*
X10000Y-20000D03*
X10000Y-28000D03*
X10000Y-36000D03*
X10000Y-44000D03*
D11*
X-45000Y60000D03*
X-45000Y52000D03*
X-45000Y44000D03*
X-45000Y36000D03*
X-45000Y28000D03*
X-45000Y20000D03*
X-45000Y12000D03*
X-45000Y4000D03*
X-45000Y-4000D03*
X-45000Y-12000D03*
X-45000Y-20000D03*
X-45000Y-28000D03*
X-45000Y-36000D03*
X-45000Y-44000D03*
X-45000Y-52000D03*
X-45000Y-60000D03*
X45000Y60000D03*
X45000Y52000D03*
X45000Y44000D03*
X45000Y36000D03*
X45000Y28000D03*
X45000Y20000D03*
X45000Y12000D03*
X45000Y4000D03*
X45000Y-4000D03*
X45000Y-12000D03*
X45000Y-20000D03*
X45000Y-28000D03*
X45000Y-36000D03*
X45000Y-44000D03*
X45000Y-52000D03*
X45000Y-60000D03*
X-36000Y56000D03*
X-36000Y48000D03*
X-36000Y40000D03*
X-36000Y32000D03*
X-36000Y24000D03*
X-36000Y16000D03*
X-36000Y8000D03*
X-36000Y0D03*
X-36000Y-8000D03*
X-36000Y-16000D03*
X-36000Y-24000D03*
X-36000Y-32000D03*
X-36000Y-40000D03*
X-36000Y-48000D03*
X-36000Y-56000D03*
X36000Y56000D03*
X36000Y48000D03*
X36000Y40000D03*
X36000Y32000D03*
X36000Y24000D03*
X36000Y16000D03*
X36000Y8000D03*
X36000Y0D03*
X36000Y-8000D03*
X36000Y-16000D03*
X36000Y-24000D03*
X36000Y-32000D03*
X36000Y-40000D03*
X36000Y-48000D03*
X36000Y-56000D03*
D12*
X-40000Y75000D03*
X-32000Y75000D03*
X-24000Y75000D03*
X-16000Y75000D03*
X-8000Y75000D03*
X0Y75000D03*
X8000Y75000D03*
X16000Y75000D03*
X24000Y75000D03*
X32000Y75000D03*
X40000Y75000D03*
X36000Y66000D03*
X28000Y66000D03*
X20000Y66000D03*
X12000Y66000D03*
X4000Y66000D03*
X-4000Y66000D03*
X-12000Y66000D03*
X-20000Y66000D03*
X-28000Y66000D03*
X-36000Y66000D03*
X40000Y-75000D03*
X32000Y-75000D03*
X24000Y-75000D03*
X16000Y-75000D03*
X8000Y-75000D03*
X0Y-75000D03*
X-8000Y-75000D03*
X-16000Y-75000D03*
X-24000Y-75000D03*
X-32000Y-75000D03*
X-40000Y-75000D03*
X28000Y-66000D03*
X20000Y-66000D03*
X12000Y-66000D03*
X4000Y-66000D03*
X-4000Y-66000D03*
X-12000Y-66000D03*
X-20000Y-66000D03*
X-28000Y-66000D03*
X-36000Y-66000D03*
X36000Y-66000D03*
D13*
X-279400Y-177800D03*
X-279400Y-152400D03*
X-279400Y-127000D03*
X-279400Y-101600D03*
X-279400Y-76200D03*
X-279400Y-50800D03*
X-279400Y-25400D03*
X-279400Y0D03*
X-279400Y25400D03*
X-279400Y50800D03*
X-279400Y76200D03*
X-279400Y101600D03*
X-279400Y127000D03*
X-279400Y152400D03*
X-279400Y177800D03*
X-279400Y203200D03*
X-279400Y228600D03*
X-279400Y254000D03*
X-279400Y279400D03*
X-279400Y304800D03*
X-279400Y-685800D03*
X-279400Y-660400D03*
X-279400Y-635000D03*
X-279400Y-609600D03*
X-279400Y-584200D03*
X-279400Y-558800D03*
X-279400Y-533400D03*
X-279400Y-508000D03*
X-279400Y-482600D03*
X-279400Y-457200D03*
X-279400Y-431800D03*
X-279400Y-406400D03*
X-279400Y-381000D03*
X-279400Y-355600D03*
X-279400Y-330200D03*
X-279400Y-304800D03*
X-279400Y-279400D03*
X-279400Y-254000D03*
X-279400Y-228600D03*
X-279400Y-203200D03*
X279400Y-203200D03*
X279400Y-228600D03*
X279400Y-254000D03*
X279400Y-279400D03*
X279400Y-304800D03*
X279400Y-330200D03*
X279400Y-355600D03*
X279400Y-381000D03*
X279400Y-406400D03*
X279400Y-431800D03*
X279400Y-457200D03*
X279400Y-482600D03*
X279400Y-508000D03*
X279400Y-533400D03*
X279400Y-558800D03*
X279400Y-584200D03*
X279400Y-609600D03*
X279400Y-635000D03*
X279400Y-660400D03*
X279400Y-685800D03*
X241300Y-685800D03*
X215900Y-685800D03*
X190500Y-685800D03*
X165100Y-685800D03*
X139700Y-685800D03*
X114300Y-685800D03*
X88900Y-685800D03*
X63500Y-685800D03*
X38100Y-685800D03*
X12700Y-685800D03*
X-12700Y-685800D03*
X-38100Y-685800D03*
X-63500Y-685800D03*
X-88900Y-685800D03*
X-114300Y-685800D03*
X-139700Y-685800D03*
X-165100Y-685800D03*
X-190500Y-685800D03*
X-215900Y-685800D03*
X-241300Y-685800D03*
X-279400Y812800D03*
X-279400Y787400D03*
X-279400Y762000D03*
X-279400Y736600D03*
X-279400Y711200D03*
X-279400Y685800D03*
X-279400Y660400D03*
X-279400Y635000D03*
X-279400Y609600D03*
X-279400Y584200D03*
X-279400Y558800D03*
X-279400Y533400D03*
X-279400Y508000D03*
X-279400Y482600D03*
X-279400Y457200D03*
X-279400Y431800D03*
X-279400Y406400D03*
X-279400Y381000D03*
X-279400Y355600D03*
X-279400Y330200D03*
X279400Y812800D03*
X279400Y787400D03*
X279400Y762000D03*
X279400Y736600D03*
X279400Y711200D03*
X279400Y685800D03*
X279400Y660400D03*
X279400Y635000D03*
X279400Y609600D03*
X279400Y584200D03*
X279400Y558800D03*
X279400Y533400D03*
X279400Y508000D03*
X279400Y482600D03*
X279400Y457200D03*
X279400Y431800D03*
X279400Y406400D03*
X279400Y381000D03*
X279400Y355600D03*
X279400Y330200D03*
X279400Y304800D03*
X279400Y279400D03*
X279400Y254000D03*
X279400Y228600D03*
X279400Y203200D03*
X279400Y177800D03*
X279400Y152400D03*
X279400Y127000D03*
X279400Y101600D03*
X279400Y76200D03*
X279400Y50800D03*
X279400Y25400D03*
X279400Y0D03*
X279400Y-25400D03*
X279400Y-50800D03*
X279400Y-76200D03*
X279400Y-101600D03*
X279400Y-127000D03*
X279400Y-152400D03*
X279400Y-177800D03*
X-330200Y-177800D03*
X-330200Y-152400D03*
X-330200Y-127000D03*
X-330200Y-101600D03*
X-330200Y-76200D03*
X-330200Y-50800D03*
X-330200Y-25400D03*
X-330200Y0D03*
X-330200Y25400D03*
X-330200Y50800D03*
X-330200Y76200D03*
X-330200Y101600D03*
X-330200Y127000D03*
X-330200Y152400D03*
X-330200Y177800D03*
X-330200Y203200D03*
X-330200Y228600D03*
X-330200Y254000D03*
X-330200Y279400D03*
X-330200Y304800D03*
X-330200Y-685800D03*
X-330200Y-660400D03*
X-330200Y-635000D03*
X-330200Y-609600D03*
X-330200Y-584200D03*
X-330200Y-558800D03*
X-330200Y-533400D03*
X-330200Y-508000D03*
X-330200Y-482600D03*
X-330200Y-457200D03*
X-330200Y-431800D03*
X-330200Y-406400D03*
X-330200Y-381000D03*
X-330200Y-355600D03*
X-330200Y-330200D03*
X-330200Y-304800D03*
X-330200Y-279400D03*
X-330200Y-254000D03*
X-330200Y-228600D03*
X-330200Y-203200D03*
X330200Y-203200D03*
X330200Y-228600D03*
X330200Y-254000D03*
X330200Y-279400D03*
X330200Y-304800D03*
X330200Y-330200D03*
X330200Y-355600D03*
X330200Y-381000D03*
X330200Y-406400D03*
X330200Y-431800D03*
X330200Y-457200D03*
X330200Y-482600D03*
X330200Y-508000D03*
X330200Y-533400D03*
X330200Y-558800D03*
X330200Y-584200D03*
X330200Y-609600D03*
X330200Y-635000D03*
X330200Y-660400D03*
X330200Y-685800D03*
X330200Y50800D03*
X330200Y25400D03*
X330200Y0D03*
X330200Y-25400D03*
X330200Y-50800D03*
X330200Y-76200D03*
X330200Y-101600D03*
X330200Y-127000D03*
X330200Y-152400D03*
X330200Y-177800D03*
X241300Y-736600D03*
X215900Y-736600D03*
X190500Y-736600D03*
X165100Y-736600D03*
X139700Y-736600D03*
X114300Y-736600D03*
X88900Y-736600D03*
X63500Y-736600D03*
X38100Y-736600D03*
X12700Y-736600D03*
X-12700Y-736600D03*
X-38100Y-736600D03*
X-63500Y-736600D03*
X-88900Y-736600D03*
X-114300Y-736600D03*
X-139700Y-736600D03*
X-165100Y-736600D03*
X-190500Y-736600D03*
X-215900Y-736600D03*
X-241300Y-736600D03*
X-330200Y812800D03*
X-330200Y787400D03*
X-330200Y762000D03*
X-330200Y736600D03*
X-330200Y711200D03*
X-330200Y685800D03*
X-330200Y660400D03*
X-330200Y635000D03*
X-330200Y609600D03*
X-330200Y584200D03*
X-330200Y558800D03*
X-330200Y533400D03*
X-330200Y508000D03*
X-330200Y482600D03*
X-330200Y457200D03*
X-330200Y431800D03*
X-330200Y406400D03*
X-330200Y381000D03*
X-330200Y355600D03*
X-330200Y330200D03*
X330200Y812800D03*
X330200Y787400D03*
X330200Y762000D03*
X330200Y736600D03*
X330200Y711200D03*
X330200Y685800D03*
X330200Y660400D03*
X330200Y635000D03*
X330200Y609600D03*
X330200Y584200D03*
X330200Y558800D03*
X330200Y533400D03*
X330200Y508000D03*
X330200Y482600D03*
X330200Y457200D03*
X330200Y431800D03*
X330200Y406400D03*
X330200Y381000D03*
X330200Y355600D03*
X330200Y330200D03*
X330200Y304800D03*
X330200Y279400D03*
X330200Y254000D03*
X330200Y228600D03*
X330200Y203200D03*
X330200Y177800D03*
X330200Y152400D03*
X330200Y127000D03*
X330200Y101600D03*
X330200Y76200D03*
M02*
